<svg width="60" height="54" viewBox="0 0 60 54" fill="none" xmlns="http://www.w3.org/2000/svg">
<path d="M42.6283 -8.39233e-05C40.8293 -8.39233e-05 39.169 0.966351 38.2805 2.53065L20.9712 33.0078C20.1015 34.5391 20.1015 36.415 20.9712 37.9463L25.3622 45.6777C27.2786 49.052 32.1412 49.052 34.0576 45.6777L55.7578 7.46916C57.6508 4.13595 55.2433 -8.39233e-05 51.41 -8.39233e-05H42.6283Z" fill="#FF7E11"/>
<path d="M8.58978 0.480616C4.75652 0.480616 2.34899 4.61664 4.24203 7.94985L11.5371 20.7949C13.4536 24.1692 18.3162 24.1692 20.2326 20.7949L27.5279 7.94988C29.4209 4.61667 27.0134 0.480616 23.1801 0.480616H8.58978Z" fill="#FF7E11"/>
</svg>
