<svg width="72" height="64" viewBox="0 0 72 64" fill="none" xmlns="http://www.w3.org/2000/svg">
<path d="M50.5722 0C48.7732 0 47.1129 0.966434 46.2245 2.53074L24.8853 40.1035C24.0156 41.6348 24.0156 43.5107 24.8853 45.042L31.3045 56.3447C33.2209 59.719 38.0835 59.719 40 56.3447L67.7583 7.46925C69.6513 4.13604 67.2438 0 63.4105 0H50.5722Z" fill="#008AED"/>
<path d="M8.58977 0.576977C4.75651 0.576977 2.34899 4.713 4.24203 8.04621L14.7142 26.4853C16.6306 29.8596 21.4933 29.8597 23.4097 26.4853L33.882 8.04624C35.7751 4.71304 33.3676 0.576977 29.5343 0.576977H8.58977Z" fill="#008AED"/>
</svg>
